<svg width="112" height="147" viewBox="0 0 112 147" fill="none" xmlns="http://www.w3.org/2000/svg">
    <path
        d="M106.707 51.9418C98.9682 61.7487 88.5406 56.4115 84.2399 67.1138C78.46 58.4252 67.8431 52.3424 55.4632 51.468L56.9284 40.8527H58.3304C59.5178 40.8527 60.6567 40.3841 61.4966 39.5499C62.3366 38.7157 62.8089 37.5841 62.8099 36.4039V31.7565C62.8099 30.5756 62.3379 29.4432 61.4979 28.6082C60.6578 27.7732 59.5184 27.3041 58.3304 27.3041H45.5334C44.3453 27.3041 43.206 27.7732 42.3659 28.6082C41.5258 29.4432 41.0539 30.5756 41.0539 31.7565V36.4039C41.0534 36.9889 41.169 37.5682 41.3939 38.1088C41.6188 38.6494 41.9487 39.1406 42.3647 39.5544C42.7807 39.9682 43.2746 40.2965 43.8183 40.5205C44.362 40.7444 44.9448 40.8597 45.5334 40.8597H47.1878L49.2242 51.4784C37.7031 52.3076 27.7136 57.6518 21.741 65.4137C17.0477 56.9933 7.37018 61.1878 0.0901455 51.9487C0.0901455 51.9487 -1.17518 66.1453 5.77537 73.4405C8.55489 76.3529 12.435 77.8127 16.1153 78.5164C15.942 79.7317 15.853 80.9574 15.8489 82.1849C15.8489 99.2138 32.2001 113.017 52.3753 113.017C72.5504 113.017 88.8981 99.2138 88.8981 82.1849C88.8972 81.0618 88.8234 79.9401 88.6773 78.8265C92.8834 78.2934 97.7309 76.879 101.019 73.43C107.955 66.1384 106.707 51.9418 106.707 51.9418Z"
        fill="#FF5500"></path>
    <path
        d="M86.1299 70.4064C86.1895 71.1241 86.2316 71.8453 86.2316 72.5734C86.2316 89.6023 69.8769 103.405 49.7052 103.405C34.4792 103.405 21.4333 95.5388 15.9514 84.3557C17.2693 100.381 33.0667 113.021 52.3726 113.021C72.5478 113.021 88.8989 99.2177 88.8989 82.1887C88.8928 78.1027 87.9456 74.0723 86.1299 70.4064V70.4064Z"
        fill="#EF3800"></path>
    <path
        d="M46.8299 86.1622C52.5351 80.4916 52.5351 71.2977 46.8299 65.627C41.1247 59.9564 31.8747 59.9564 26.1695 65.627C20.4642 71.2977 20.4642 80.4916 26.1695 86.1622C31.8747 91.8329 41.1247 91.8329 46.8299 86.1622Z"
        fill="white"></path>
    <path
        d="M87.7267 77.4276C89.3845 67.2764 82.4491 57.7115 72.2361 56.0637C62.023 54.416 52.3998 61.3093 50.742 71.4605C49.0842 81.6116 56.0195 91.1765 66.2326 92.8243C76.4456 94.4721 86.0689 87.5787 87.7267 77.4276Z"
        fill="white"></path>
    <path
        d="M44.0045 49.8005L28.302 49.2255C26.7641 49.1692 25.4714 50.3627 25.4147 51.8913L25.3043 54.8714C25.2476 56.4 26.4484 57.6848 27.9863 57.7412L43.6889 58.3162C45.2268 58.3725 46.5195 57.179 46.5761 55.6504L46.6866 52.6703C46.7433 51.1417 45.5425 49.8569 44.0045 49.8005Z"
        fill="#000A23"></path>
    <path
        d="M76.9867 46.453L61.2761 46.7365C59.7374 46.7643 58.514 48.1003 58.5436 49.7206L58.6013 52.8795C58.6309 54.4997 59.9023 55.7907 61.441 55.763L77.1516 55.4794C78.6903 55.4517 79.9137 54.1157 79.8841 52.4954L79.8264 49.3365C79.7968 47.7162 78.5254 46.4252 76.9867 46.453Z"
        fill="#000A23"></path>
    <path
        d="M42.5366 82.3787C45.9983 78.938 45.9983 73.3594 42.5366 69.9187C39.0749 66.4779 33.4623 66.4779 30.0006 69.9187C26.5388 73.3594 26.5388 78.938 30.0006 82.3787C33.4623 85.8195 39.0749 85.8195 42.5366 82.3787Z"
        fill="#000A23"></path>
    <path
        d="M77.7286 82.9808C82.1679 78.5685 82.1679 71.4146 77.7286 67.0023C73.2894 62.59 66.092 62.59 61.6527 67.0023C57.2135 71.4146 57.2135 78.5685 61.6527 82.9808C66.0919 87.3931 73.2894 87.3931 77.7286 82.9808Z"
        fill="#000A23"></path>
    <path
        d="M72.0318 30.3318C73.3777 29.21 72.8485 26.7539 74.4853 26.848C75.8874 26.9281 74.8849 30.4224 76.1538 30.945C77.4226 31.4675 79.8691 31.5059 79.7184 32.666C79.5677 33.8261 77.1106 33.7111 75.7682 34.5856C74.4258 35.46 74.7517 37.7628 73.3602 37.7628C71.9687 37.7628 72.7258 34.1396 71.6918 33.7878C69.9182 33.1851 68.4111 33.0283 68.6073 31.9413C68.8036 30.8544 71.0889 31.1226 72.0318 30.3318Z"
        fill="#FF5500"></path>
    <path
        d="M91.0513 22.0231C92.7022 20.6296 92.0573 17.6265 94.0482 17.738C95.7621 17.8321 94.5424 22.1276 96.0986 22.7687C97.6549 23.4097 100.655 23.4654 100.48 24.8799C100.305 26.2943 97.2728 26.1445 95.6254 27.2349C93.9781 28.3254 94.3776 31.1368 92.6707 31.1368C90.9637 31.1368 91.889 26.688 90.6237 26.2594C88.44 25.5174 86.5754 25.3258 86.8347 24.0054C87.0941 22.685 89.8947 22.9916 91.0513 22.0231Z"
        fill="#FF5500"></path>
    <path
        d="M84.6708 39.777C86.5986 38.164 85.845 34.6384 88.1758 34.7673C90.1807 34.8788 88.7507 39.899 90.5733 40.648C92.3959 41.397 95.9045 41.4528 95.6907 43.1145C95.4769 44.7763 91.9438 44.5952 90.0195 45.8703C88.0952 47.1453 88.5579 50.4306 86.574 50.4306C84.5902 50.4306 85.6627 45.2292 84.1801 44.7276C81.6319 43.8636 79.4692 43.6371 79.7532 42.0764C80.0371 40.5156 83.3178 40.9093 84.6708 39.777Z"
        fill="#FF5500"></path>
    <path
        d="M53.2995 94.5707C54.082 94.5405 54.7543 95.1688 54.5463 95.9073C54.3137 96.7403 53.871 97.5006 53.26 98.116C52.6491 98.7314 51.8902 99.1816 51.0552 99.4239C50.2202 99.6662 49.3368 99.6926 48.4887 99.5005C47.6406 99.3085 46.8559 98.9044 46.2088 98.3266C45.5829 97.7705 45.1065 97.0678 44.823 96.2823C44.554 95.5484 45.1759 94.884 45.9583 94.8538L53.2995 94.5707Z"
        fill="#000A23"></path>
    <path opacity="0.21"
        d="M80.267 90.4397C71.3809 96.3658 59.3573 94.0231 53.4115 85.2072C47.4657 76.3913 49.8493 64.4405 58.7354 58.5144C67.6216 52.5883 79.6452 54.931 85.591 63.7469C91.5368 72.5628 89.1532 84.5136 80.267 90.4397Z"
        fill="white"></path>
    <path opacity="0.58"
        d="M89.0738 78.2968C89.842 74.4416 89.4448 70.4487 87.9325 66.8231C86.4202 63.1974 83.8607 60.1019 80.5778 57.928C77.2948 55.754 73.4358 54.5993 69.4889 54.6098C65.5419 54.6203 61.6842 55.7957 58.4036 57.9871C55.1231 60.1786 52.567 63.2878 51.0587 66.9215C49.5504 70.5552 49.1576 74.5502 49.93 78.4012C50.7023 82.2523 52.6051 85.7865 55.3978 88.5568C58.1905 91.3271 61.7476 93.2092 65.6192 93.9649C70.8096 94.9723 76.1939 93.8885 80.591 90.9512C84.988 88.0139 88.0387 83.4629 89.0738 78.2968ZM51.1266 70.8895C51.8465 67.2701 53.6282 63.9422 56.2463 61.3267C58.8643 58.7113 62.2012 56.9257 65.8348 56.1958C69.4684 55.4659 73.2356 55.8246 76.6598 57.2264C80.0841 58.6282 83.0116 61.0101 85.0722 64.071C87.1327 67.1319 88.2337 70.7342 88.236 74.4224C88.2382 78.1105 87.1415 81.7188 85.0847 84.7909C83.0278 87.863 80.1032 90.2609 76.6807 91.6814C73.2581 93.1018 69.4914 93.481 65.8569 92.7709C60.9874 91.8138 56.7021 88.9728 53.9407 84.8708C51.1793 80.7689 50.1673 75.7409 51.1266 70.8895V70.8895Z"
        fill="#F9AE41"></path>
    <path
        d="M79.6366 94.4938C79.6045 94.5164 79.5745 94.5417 79.5468 94.5693C74.4048 97.1296 68.4808 97.6483 62.9776 96.0199C57.4744 94.3916 52.8045 90.7383 49.9162 85.8018C47.0278 80.8654 46.1374 75.0158 47.4258 69.4408C48.7142 63.8658 52.0848 58.9833 56.8533 55.7846C61.6218 52.586 67.4306 51.3109 73.1004 52.2183C78.7702 53.1257 83.876 56.1476 87.381 60.6704C90.8861 65.1932 92.5276 70.8779 91.9724 76.5702C91.4172 82.2625 88.7069 87.5358 84.3917 91.3194L81.3212 93.3683L79.6366 94.4938ZM88.4742 78.1803C89.2188 74.4432 88.8338 70.5726 87.3678 67.058C85.9019 63.5434 83.4208 60.5427 80.2384 58.4353C77.056 56.3279 73.3152 55.2086 69.4892 55.2188C65.6631 55.229 61.9235 56.3683 58.7434 58.4926C55.5634 60.617 53.0856 63.6309 51.6235 67.1533C50.1613 70.6757 49.7805 74.5484 50.5292 78.2815C51.2779 82.0146 53.1225 85.4406 55.8296 88.126C58.5368 90.8115 61.9849 92.6359 65.738 93.3685C70.77 94.3508 75.9921 93.3025 80.2559 90.4542C84.5197 87.6059 87.4758 83.191 88.4742 78.1803V78.1803Z"
        fill="#F9AE41"></path>
    <path
        d="M91.9399 78.856C92.8197 74.4364 92.3637 69.8592 90.6295 65.7031C88.8953 61.5471 85.9608 57.9988 82.1971 55.5071C78.4333 53.0154 74.0094 51.6921 69.4847 51.7046C64.9601 51.7171 60.5379 53.0649 56.7774 55.5774C53.0168 58.0899 50.0869 61.6543 48.3581 65.82C46.6293 69.9856 46.1792 74.5653 47.0647 78.98C47.9503 83.3947 50.1318 87.4461 53.3332 90.6218C56.5347 93.7976 60.6124 95.955 65.0507 96.8214C70.0102 97.8045 75.161 97.107 79.6831 94.84L79.7483 94.7938C79.7671 94.7769 79.7869 94.7611 79.8076 94.7465L84.5908 91.5558C88.3893 88.2507 90.9753 83.7819 91.9399 78.856V78.856ZM47.6615 70.2128C48.2005 67.3289 49.3089 64.5789 50.9224 62.1221C52.5359 59.6653 54.6225 57.5506 57.0613 55.9005C59.5001 54.2504 62.2425 53.0978 65.1298 52.5093C68.0171 51.9208 70.9918 51.9083 73.8815 52.4723C76.7712 53.0364 79.5185 54.1659 81.9642 55.7954C84.41 57.4248 86.5055 59.5219 88.1294 61.965C89.7533 64.4081 90.8732 67.1488 91.4244 70.0281C91.9756 72.9074 91.947 75.8682 91.3403 78.7389C90.406 83.5224 87.8983 87.8631 84.213 91.0759L79.4753 94.2413L79.3825 94.3162C74.9902 96.5089 69.9914 97.1811 65.1786 96.2261C59.3879 95.0909 54.2911 91.7142 51.007 86.8372C47.7229 81.9601 46.5197 75.9813 47.6615 70.2128V70.2128ZM88.7743 78.2381C89.5307 74.4419 89.1396 70.5102 87.6505 66.9401C86.1613 63.3699 83.6411 60.3218 80.4084 58.1812C77.1757 56.0405 73.3758 54.9034 69.4893 54.9138C65.6028 54.9242 61.8042 56.0815 58.5738 58.2394C55.3435 60.3973 52.8266 63.4589 51.3414 67.0369C49.8562 70.615 49.4694 74.5488 50.2299 78.3409C50.9904 82.133 52.8641 85.613 55.614 88.3409C58.3639 91.0688 61.8665 92.9221 65.6789 93.6662C70.7897 94.6573 76.0911 93.5897 80.4206 90.6975C84.7501 87.8053 87.7543 83.3247 88.7743 78.2381V78.2381ZM50.8271 70.8307C51.5588 67.1523 53.3695 63.7702 56.0303 61.112C58.6911 58.4539 62.0823 56.6392 65.7752 55.8975C69.4681 55.1557 73.2967 55.5202 76.7769 56.9448C80.257 58.3695 83.2323 60.7903 85.3264 63.9011C87.4206 67.012 88.5396 70.673 88.5418 74.4213C88.5441 78.1696 87.4296 81.8368 85.3392 84.959C83.2488 88.0812 80.2764 90.5183 76.798 91.9619C73.3197 93.4055 69.4915 93.7909 65.7977 93.0692C60.8487 92.0966 56.4934 89.2093 53.687 85.0404C50.8805 80.8715 49.852 75.7614 50.8271 70.8307V70.8307Z"
        fill="#F9AE41"></path>
    <path
        d="M83.2528 94.6286L82.5653 93.6073C82.4372 93.4186 82.2392 93.2882 82.0146 93.2443C81.79 93.2005 81.5569 93.2468 81.366 93.3732L84.4371 91.3238L84.4874 91.2902C84.5815 91.2264 84.6874 91.1819 84.7988 91.1591C84.9103 91.1363 85.0252 91.1358 85.1367 91.1576C85.2483 91.1794 85.3544 91.223 85.4488 91.286C85.5432 91.3489 85.6241 91.4299 85.6867 91.5243L86.5238 92.764C85.8588 92.9909 84.5324 93.771 83.2528 94.6286Z"
        fill="#FAC983"></path>
    <path
        d="M81.352 93.3659C81.5428 93.2395 81.7759 93.1932 82.0005 93.237C82.225 93.2809 82.4229 93.4113 82.551 93.5999L83.2384 94.6209C82.1798 95.2937 81.1743 96.046 80.2306 96.8712L79.4303 95.6824C79.3152 95.5104 79.2666 95.3027 79.2937 95.0975C79.3208 94.8924 79.4217 94.7039 79.5777 94.5669C79.6054 94.5392 79.6354 94.514 79.6674 94.4914L81.352 93.3659Z"
        fill="#FADDB5"></path>
    <path opacity="0.43"
        d="M81.352 93.3659C81.5428 93.2395 81.7759 93.1932 82.0005 93.237C82.225 93.2809 82.4229 93.4113 82.551 93.5999L83.2384 94.6209C82.1798 95.2937 81.1743 96.046 80.2306 96.8712L79.4303 95.6824C79.3152 95.5104 79.2666 95.3027 79.2937 95.0975C79.3208 94.8924 79.4217 94.7039 79.5777 94.5669C79.6054 94.5392 79.6354 94.514 79.6674 94.4914L81.352 93.3659Z"
        fill="#F9AE41"></path>
    <path
        d="M92.6389 115.911L79.9673 97.3118C79.9216 97.244 80.0334 97.0891 80.247 96.8765C81.1907 96.0512 82.1963 95.299 83.2549 94.6262C84.5492 93.7718 85.8754 92.9918 86.5223 92.7614C86.7302 92.6873 86.8704 92.6712 86.9088 92.7283L99.5804 111.327C99.8862 111.775 100.1 112.279 100.208 112.81C100.316 113.341 100.318 113.888 100.212 114.42C100.106 114.952 99.8949 115.457 99.5912 115.908C99.2874 116.358 98.8969 116.744 98.4424 117.044C97.5178 117.652 96.3907 117.874 95.3048 117.662C94.2188 117.45 93.2612 116.821 92.6389 115.911V115.911Z"
        fill="#F9AE41"></path>
    <path
        d="M77.1427 63.1663C77.1996 62.875 77.3279 62.6019 77.5162 62.3715C77.7046 62.1411 77.9471 61.9605 78.2222 61.8457C78.4973 61.7309 78.7965 61.6854 79.0932 61.7134C79.3899 61.7414 79.6749 61.842 79.9229 62.0062C80.1708 62.1703 80.374 62.393 80.5145 62.6545C80.6549 62.9159 80.7282 63.2079 80.7278 63.5046C80.7274 63.8014 80.6534 64.0935 80.5123 64.3552C80.3712 64.6169 80.1674 64.8399 79.919 65.0045C79.7223 65.1372 79.5011 65.2296 79.2683 65.2763C79.0355 65.323 78.7958 65.323 78.5631 65.2763C78.0937 65.1838 77.6806 64.9099 77.4143 64.5144C77.1481 64.1189 77.0504 63.6341 77.1427 63.1663V63.1663Z"
        fill="white"></path>
    <path
        d="M101.487 98.8829C100.079 95.6466 95.5802 94.4661 91.4396 96.2462C87.299 98.0264 85.0841 102.093 86.4925 105.329C87.9009 108.566 92.3992 109.746 96.5398 107.966C100.68 106.186 102.895 102.119 101.487 98.8829Z"
        fill="#FF5500"></path>
    <path
        d="M56 146.523C71.2969 146.523 83.6975 143.944 83.6975 140.762C83.6975 137.58 71.2969 135 56 135C40.7031 135 28.3025 137.58 28.3025 140.762C28.3025 143.944 40.7031 146.523 56 146.523Z"
        fill="#BAC5D5" fill-opacity="0.3"></path>
</svg>